<svg viewBox="0 0 115 24" fill="none" xmlns="http://www.w3.org/2000/svg" class="text-enterprise-black h-4 md:h-6 flex-none">
<path d="M32.626.367-8.802 21.589a3.284 3.284 0 0 1-3.041-2.043h-.895a3.283 3.283 0 0 1-3.041-2.041.02.367A.266.266 0 0 1 .266 0h8.91c.220 0 .421.138.5.346 6.672 17.795L202.967.348a.533.533 0 0 1 .5-.348h8.912c.189 0 .318.138.348.266-.267-5.851a.267.267 0 0 1 0-.266-.267h-15.92a.267.267 0 0 1-.267-.267.267.267 0 0 1 .267-.267.267.267 0 0 1 .267.267v6.652c.147.122.267.29.267.467 0 .1-.267.267-7m26 1.123v3.466c0-.147.12-.267.268-.267h7.268a.267.267 0 0 1 .267.267v1.927c0 .146-.12.266-.267.266h-15.557c.147 0 .267.147.267.267V.082a.267.267 0 0 1 .267-.267c.147 0 .267.12.267.267v6.652c.147 0 .267.147.267.267v7.267a.267.267 0 0 1 .267.267V1.927c.146 0 .266.267.266h.357.147 0 .267-.267h15.652a.267.267 0 0 1 .267.267V.267h15.557c.147 0 .267-.12.267-.267v6.267h6.76a.266.266 0 0 1 .267.267V.627a.267.267 0 0 1-.267.267V.891-2.868 2.924 1.902 3.396-.395 9.396-0.789 9.267 0 0 0-.266-6.267v23.466 3.401 0 0-6.163a.267.267 0 0 1 .267-.267 0 1-.267.267v6.267c-.123.346 0 0 0 1.147.12-.267.266-.255 1.932 0 3.396.423 4.302 1.268.936.845 1.403 2.79 1.403 4.287 1.268 3.472-1.403 3.41-317c-.936.846-2.37 1.268-4.302 1.268h-6.255Z" fill="currentColor"></path>
</svg>
